<svg fill="none" width="50px" height="50" viewBox="0 -64 640 640" xmlns="http://www.w3.org/2000/svg">
    <style>
        .face { fill: #000000; }
        .mask { fill: red; }
    </style>
    <!-- Face Path -->
    <path class="face" d="M312 8C175 8 64 119 64 256s111 248 248 248 248-111 248-248c0-25.38-3.82-49.86-10.9-72.91l63.92 52.97L640 173.49l-98.2-10.89c-.65-1.6-1.31-3.19-2-4.77l94.89-40.43L595 61.64l-60.41 84.91C494.17 64.46 409.7 8 312 8z"/>
    <path class="mask" d="M179.41 170.02h262.56c42.35 0 54.97 49.74 53.8 83.99-1.18 34.83-41.79 72.53-72.23 72.53-61.58 0-73.62-40.25-112.85-40.28-39.23.03-51.27 40.28-112.85 40.28-30.44 0-71.05-37.7-72.23-72.53-1.17-34.25 11.45-83.99 53.8-83.99z"/>
</svg>